<svg xmlns="http://www.w3.org/2000/svg" width="780" height="118" font-family="sans-serif" font-size="9">
<rect x="20" y="15" width="11" height="11" rx="2" fill="#ebedf0"><title>2025-08-24: 0 submissions</title></rect>
<text x="20" y="10" fill="#767676">Aug</text>
<rect x="20" y="29" width="11" height="11" rx="2" fill="#ebedf0"><title>2025-08-25: 0 submissions</title></rect>
<rect x="20" y="43" width="11" height="11" rx="2" fill="#ebedf0"><title>2025-08-26: 0 submissions</title></rect>
<rect x="20" y="57" width="11" height="11" rx="2" fill="#40c463"><title>2025-08-27: 3 submissions</title></rect>
<rect x="20" y="71" width="11" height="11" rx="2" fill="#ebedf0"><title>2025-08-28: 0 submissions</title></rect>
<rect x="20" y="85" width="11" height="11" rx="2" fill="#ebedf0"><title>2025-08-29: 0 submissions</title></rect>
<rect x="20" y="99" width="11" height="11" rx="2" fill="#ebedf0"><title>2025-08-30: 0 submissions</title></rect>
<rect x="34" y="15" width="11" height="11" rx="2" fill="#ebedf0"><title>2025-08-31: 0 submissions</title></rect>
<rect x="34" y="29" width="11" height="11" rx="2" fill="#ebedf0"><title>2025-09-01: 0 submissions</title></rect>
<rect x="34" y="43" width="11" height="11" rx="2" fill="#ebedf0"><title>2025-09-02: 0 submissions</title></rect>
<rect x="34" y="57" width="11" height="11" rx="2" fill="#ebedf0"><title>2025-09-03: 0 submissions</title></rect>
<rect x="34" y="71" width="11" height="11" rx="2" fill="#ebedf0"><title>2025-09-04: 0 submissions</title></rect>
<rect x="34" y="85" width="11" height="11" rx="2" fill="#ebedf0"><title>2025-09-05: 0 submissions</title></rect>
<rect x="34" y="99" width="11" height="11" rx="2" fill="#ebedf0"><title>2025-09-06: 0 submissions</title></rect>
<rect x="48" y="15" width="11" height="11" rx="2" fill="#ebedf0"><title>2025-09-07: 0 submissions</title></rect>
<text x="48" y="10" fill="#767676">Sep</text>
<rect x="48" y="29" width="11" height="11" rx="2" fill="#ebedf0"><title>2025-09-08: 0 submissions</title></rect>
<rect x="48" y="43" width="11" height="11" rx="2" fill="#ebedf0"><title>2025-09-09: 0 submissions</title></rect>
<rect x="48" y="57" width="11" height="11" rx="2" fill="#ebedf0"><title>2025-09-10: 0 submissions</title></rect>
<rect x="48" y="71" width="11" height="11" rx="2" fill="#ebedf0"><title>2025-09-11: 0 submissions</title></rect>
<rect x="48" y="85" width="11" height="11" rx="2" fill="#ebedf0"><title>2025-09-12: 0 submissions</title></rect>
<rect x="48" y="99" width="11" height="11" rx="2" fill="#ebedf0"><title>2025-09-13: 0 submissions</title></rect>
<rect x="62" y="15" width="11" height="11" rx="2" fill="#ebedf0"><title>2025-09-14: 0 submissions</title></rect>
<rect x="62" y="29" width="11" height="11" rx="2" fill="#ebedf0"><title>2025-09-15: 0 submissions</title></rect>
<rect x="62" y="43" width="11" height="11" rx="2" fill="#ebedf0"><title>2025-09-16: 0 submissions</title></rect>
<rect x="62" y="57" width="11" height="11" rx="2" fill="#ebedf0"><title>2025-09-17: 0 submissions</title></rect>
<rect x="62" y="71" width="11" height="11" rx="2" fill="#ebedf0"><title>2025-09-18: 0 submissions</title></rect>
<rect x="62" y="85" width="11" height="11" rx="2" fill="#ebedf0"><title>2025-09-19: 0 submissions</title></rect>
<rect x="62" y="99" width="11" height="11" rx="2" fill="#ebedf0"><title>2025-09-20: 0 submissions</title></rect>
<rect x="76" y="15" width="11" height="11" rx="2" fill="#ebedf0"><title>2025-09-21: 0 submissions</title></rect>
<rect x="76" y="29" width="11" height="11" rx="2" fill="#ebedf0"><title>2025-09-22: 0 submissions</title></rect>
<rect x="76" y="43" width="11" height="11" rx="2" fill="#ebedf0"><title>2025-09-23: 0 submissions</title></rect>
<rect x="76" y="57" width="11" height="11" rx="2" fill="#ebedf0"><title>2025-09-24: 0 submissions</title></rect>
<rect x="76" y="71" width="11" height="11" rx="2" fill="#ebedf0"><title>2025-09-25: 0 submissions</title></rect>
<rect x="76" y="85" width="11" height="11" rx="2" fill="#ebedf0"><title>2025-09-26: 0 submissions</title></rect>
<rect x="76" y="99" width="11" height="11" rx="2" fill="#ebedf0"><title>2025-09-27: 0 submissions</title></rect>
<rect x="90" y="15" width="11" height="11" rx="2" fill="#ebedf0"><title>2025-09-28: 0 submissions</title></rect>
<rect x="90" y="29" width="11" height="11" rx="2" fill="#ebedf0"><title>2025-09-29: 0 submissions</title></rect>
<rect x="90" y="43" width="11" height="11" rx="2" fill="#ebedf0"><title>2025-09-30: 0 submissions</title></rect>
<rect x="90" y="57" width="11" height="11" rx="2" fill="#ebedf0"><title>2025-10-01: 0 submissions</title></rect>
<rect x="90" y="71" width="11" height="11" rx="2" fill="#ebedf0"><title>2025-10-02: 0 submissions</title></rect>
<rect x="90" y="85" width="11" height="11" rx="2" fill="#ebedf0"><title>2025-10-03: 0 submissions</title></rect>
<rect x="90" y="99" width="11" height="11" rx="2" fill="#ebedf0"><title>2025-10-04: 0 submissions</title></rect>
<rect x="104" y="15" width="11" height="11" rx="2" fill="#ebedf0"><title>2025-10-05: 0 submissions</title></rect>
<text x="104" y="10" fill="#767676">Oct</text>
<rect x="104" y="29" width="11" height="11" rx="2" fill="#ebedf0"><title>2025-10-06: 0 submissions</title></rect>
<rect x="104" y="43" width="11" height="11" rx="2" fill="#ebedf0"><title>2025-10-07: 0 submissions</title></rect>
<rect x="104" y="57" width="11" height="11" rx="2" fill="#ebedf0"><title>2025-10-08: 0 submissions</title></rect>
<rect x="104" y="71" width="11" height="11" rx="2" fill="#ebedf0"><title>2025-10-09: 0 submissions</title></rect>
<rect x="104" y="85" width="11" height="11" rx="2" fill="#ebedf0"><title>2025-10-10: 0 submissions</title></rect>
<rect x="104" y="99" width="11" height="11" rx="2" fill="#ebedf0"><title>2025-10-11: 0 submissions</title></rect>
<rect x="118" y="15" width="11" height="11" rx="2" fill="#ebedf0"><title>2025-10-12: 0 submissions</title></rect>
<rect x="118" y="29" width="11" height="11" rx="2" fill="#ebedf0"><title>2025-10-13: 0 submissions</title></rect>
<rect x="118" y="43" width="11" height="11" rx="2" fill="#ebedf0"><title>2025-10-14: 0 submissions</title></rect>
<rect x="118" y="57" width="11" height="11" rx="2" fill="#ebedf0"><title>2025-10-15: 0 submissions</title></rect>
<rect x="118" y="71" width="11" height="11" rx="2" fill="#ebedf0"><title>2025-10-16: 0 submissions</title></rect>
<rect x="118" y="85" width="11" height="11" rx="2" fill="#ebedf0"><title>2025-10-17: 0 submissions</title></rect>
<rect x="118" y="99" width="11" height="11" rx="2" fill="#ebedf0"><title>2025-10-18: 0 submissions</title></rect>
<rect x="132" y="15" width="11" height="11" rx="2" fill="#ebedf0"><title>2025-10-19: 0 submissions</title></rect>
<rect x="132" y="29" width="11" height="11" rx="2" fill="#ebedf0"><title>2025-10-20: 0 submissions</title></rect>
<rect x="132" y="43" width="11" height="11" rx="2" fill="#ebedf0"><title>2025-10-21: 0 submissions</title></rect>
<rect x="132" y="57" width="11" height="11" rx="2" fill="#ebedf0"><title>2025-10-22: 0 submissions</title></rect>
<rect x="132" y="71" width="11" height="11" rx="2" fill="#ebedf0"><title>2025-10-23: 0 submissions</title></rect>
<rect x="132" y="85" width="11" height="11" rx="2" fill="#ebedf0"><title>2025-10-24: 0 submissions</title></rect>
<rect x="132" y="99" width="11" height="11" rx="2" fill="#ebedf0"><title>2025-10-25: 0 submissions</title></rect>
<rect x="146" y="15" width="11" height="11" rx="2" fill="#ebedf0"><title>2025-10-26: 0 submissions</title></rect>
<rect x="146" y="29" width="11" height="11" rx="2" fill="#ebedf0"><title>2025-10-27: 0 submissions</title></rect>
<rect x="146" y="43" width="11" height="11" rx="2" fill="#ebedf0"><title>2025-10-28: 0 submissions</title></rect>
<rect x="146" y="57" width="11" height="11" rx="2" fill="#ebedf0"><title>2025-10-29: 0 submissions</title></rect>
<rect x="146" y="71" width="11" height="11" rx="2" fill="#ebedf0"><title>2025-10-30: 0 submissions</title></rect>
<rect x="146" y="85" width="11" height="11" rx="2" fill="#ebedf0"><title>2025-10-31: 0 submissions</title></rect>
<rect x="146" y="99" width="11" height="11" rx="2" fill="#ebedf0"><title>2025-11-01: 0 submissions</title></rect>
<rect x="160" y="15" width="11" height="11" rx="2" fill="#ebedf0"><title>2025-11-02: 0 submissions</title></rect>
<text x="160" y="10" fill="#767676">Nov</text>
<rect x="160" y="29" width="11" height="11" rx="2" fill="#ebedf0"><title>2025-11-03: 0 submissions</title></rect>
<rect x="160" y="43" width="11" height="11" rx="2" fill="#ebedf0"><title>2025-11-04: 0 submissions</title></rect>
<rect x="160" y="57" width="11" height="11" rx="2" fill="#ebedf0"><title>2025-11-05: 0 submissions</title></rect>
<rect x="160" y="71" width="11" height="11" rx="2" fill="#ebedf0"><title>2025-11-06: 0 submissions</title></rect>
<rect x="160" y="85" width="11" height="11" rx="2" fill="#ebedf0"><title>2025-11-07: 0 submissions</title></rect>
<rect x="160" y="99" width="11" height="11" rx="2" fill="#ebedf0"><title>2025-11-08: 0 submissions</title></rect>
<rect x="174" y="15" width="11" height="11" rx="2" fill="#ebedf0"><title>2025-11-09: 0 submissions</title></rect>
<rect x="174" y="29" width="11" height="11" rx="2" fill="#ebedf0"><title>2025-11-10: 0 submissions</title></rect>
<rect x="174" y="43" width="11" height="11" rx="2" fill="#ebedf0"><title>2025-11-11: 0 submissions</title></rect>
<rect x="174" y="57" width="11" height="11" rx="2" fill="#ebedf0"><title>2025-11-12: 0 submissions</title></rect>
<rect x="174" y="71" width="11" height="11" rx="2" fill="#ebedf0"><title>2025-11-13: 0 submissions</title></rect>
<rect x="174" y="85" width="11" height="11" rx="2" fill="#ebedf0"><title>2025-11-14: 0 submissions</title></rect>
<rect x="174" y="99" width="11" height="11" rx="2" fill="#ebedf0"><title>2025-11-15: 0 submissions</title></rect>
<rect x="188" y="15" width="11" height="11" rx="2" fill="#ebedf0"><title>2025-11-16: 0 submissions</title></rect>
<rect x="188" y="29" width="11" height="11" rx="2" fill="#ebedf0"><title>2025-11-17: 0 submissions</title></rect>
<rect x="188" y="43" width="11" height="11" rx="2" fill="#ebedf0"><title>2025-11-18: 0 submissions</title></rect>
<rect x="188" y="57" width="11" height="11" rx="2" fill="#ebedf0"><title>2025-11-19: 0 submissions</title></rect>
<rect x="188" y="71" width="11" height="11" rx="2" fill="#ebedf0"><title>2025-11-20: 0 submissions</title></rect>
<rect x="188" y="85" width="11" height="11" rx="2" fill="#ebedf0"><title>2025-11-21: 0 submissions</title></rect>
<rect x="188" y="99" width="11" height="11" rx="2" fill="#ebedf0"><title>2025-11-22: 0 submissions</title></rect>
<rect x="202" y="15" width="11" height="11" rx="2" fill="#ebedf0"><title>2025-11-23: 0 submissions</title></rect>
<rect x="202" y="29" width="11" height="11" rx="2" fill="#ebedf0"><title>2025-11-24: 0 submissions</title></rect>
<rect x="202" y="43" width="11" height="11" rx="2" fill="#ebedf0"><title>2025-11-25: 0 submissions</title></rect>
<rect x="202" y="57" width="11" height="11" rx="2" fill="#ebedf0"><title>2025-11-26: 0 submissions</title></rect>
<rect x="202" y="71" width="11" height="11" rx="2" fill="#ebedf0"><title>2025-11-27: 0 submissions</title></rect>
<rect x="202" y="85" width="11" height="11" rx="2" fill="#ebedf0"><title>2025-11-28: 0 submissions</title></rect>
<rect x="202" y="99" width="11" height="11" rx="2" fill="#ebedf0"><title>2025-11-29: 0 submissions</title></rect>
<rect x="216" y="15" width="11" height="11" rx="2" fill="#ebedf0"><title>2025-11-30: 0 submissions</title></rect>
<rect x="216" y="29" width="11" height="11" rx="2" fill="#ebedf0"><title>2025-12-01: 0 submissions</title></rect>
<rect x="216" y="43" width="11" height="11" rx="2" fill="#ebedf0"><title>2025-12-02: 0 submissions</title></rect>
<rect x="216" y="57" width="11" height="11" rx="2" fill="#ebedf0"><title>2025-12-03: 0 submissions</title></rect>
<rect x="216" y="71" width="11" height="11" rx="2" fill="#ebedf0"><title>2025-12-04: 0 submissions</title></rect>
<rect x="216" y="85" width="11" height="11" rx="2" fill="#ebedf0"><title>2025-12-05: 0 submissions</title></rect>
<rect x="216" y="99" width="11" height="11" rx="2" fill="#ebedf0"><title>2025-12-06: 0 submissions</title></rect>
<rect x="230" y="15" width="11" height="11" rx="2" fill="#216e39"><title>2025-12-07: 12 submissions</title></rect>
<text x="230" y="10" fill="#767676">Dec</text>
<rect x="230" y="29" width="11" height="11" rx="2" fill="#ebedf0"><title>2025-12-08: 0 submissions</title></rect>
<rect x="230" y="43" width="11" height="11" rx="2" fill="#216e39"><title>2025-12-09: 8 submissions</title></rect>
<rect x="230" y="57" width="11" height="11" rx="2" fill="#216e39"><title>2025-12-10: 14 submissions</title></rect>
<rect x="230" y="71" width="11" height="11" rx="2" fill="#216e39"><title>2025-12-11: 7 submissions</title></rect>
<rect x="230" y="85" width="11" height="11" rx="2" fill="#216e39"><title>2025-12-12: 11 submissions</title></rect>
<rect x="230" y="99" width="11" height="11" rx="2" fill="#30a14e"><title>2025-12-13: 4 submissions</title></rect>
<rect x="244" y="15" width="11" height="11" rx="2" fill="#216e39"><title>2025-12-14: 10 submissions</title></rect>
<rect x="244" y="29" width="11" height="11" rx="2" fill="#9be9a8"><title>2025-12-15: 1 submission</title></rect>
<rect x="244" y="43" width="11" height="11" rx="2" fill="#9be9a8"><title>2025-12-16: 1 submission</title></rect>
<rect x="244" y="57" width="11" height="11" rx="2" fill="#9be9a8"><title>2025-12-17: 1 submission</title></rect>
<rect x="244" y="71" width="11" height="11" rx="2" fill="#30a14e"><title>2025-12-18: 4 submissions</title></rect>
<rect x="244" y="85" width="11" height="11" rx="2" fill="#216e39"><title>2025-12-19: 10 submissions</title></rect>
<rect x="244" y="99" width="11" height="11" rx="2" fill="#40c463"><title>2025-12-20: 3 submissions</title></rect>
<rect x="258" y="15" width="11" height="11" rx="2" fill="#40c463"><title>2025-12-21: 2 submissions</title></rect>
<rect x="258" y="29" width="11" height="11" rx="2" fill="#9be9a8"><title>2025-12-22: 1 submission</title></rect>
<rect x="258" y="43" width="11" height="11" rx="2" fill="#40c463"><title>2025-12-23: 3 submissions</title></rect>
<rect x="258" y="57" width="11" height="11" rx="2" fill="#9be9a8"><title>2025-12-24: 1 submission</title></rect>
<rect x="258" y="71" width="11" height="11" rx="2" fill="#9be9a8"><title>2025-12-25: 1 submission</title></rect>
<rect x="258" y="85" width="11" height="11" rx="2" fill="#9be9a8"><title>2025-12-26: 1 submission</title></rect>
<rect x="258" y="99" width="11" height="11" rx="2" fill="#9be9a8"><title>2025-12-27: 1 submission</title></rect>
<rect x="272" y="15" width="11" height="11" rx="2" fill="#9be9a8"><title>2025-12-28: 1 submission</title></rect>
<rect x="272" y="29" width="11" height="11" rx="2" fill="#9be9a8"><title>2025-12-29: 1 submission</title></rect>
<rect x="272" y="43" width="11" height="11" rx="2" fill="#9be9a8"><title>2025-12-30: 1 submission</title></rect>
<rect x="272" y="57" width="11" height="11" rx="2" fill="#40c463"><title>2025-12-31: 3 submissions</title></rect>
<rect x="272" y="71" width="11" height="11" rx="2" fill="#40c463"><title>2026-01-01: 2 submissions</title></rect>
<rect x="272" y="85" width="11" height="11" rx="2" fill="#40c463"><title>2026-01-02: 3 submissions</title></rect>
<rect x="272" y="99" width="11" height="11" rx="2" fill="#40c463"><title>2026-01-03: 3 submissions</title></rect>
<rect x="286" y="15" width="11" height="11" rx="2" fill="#9be9a8"><title>2026-01-04: 1 submission</title></rect>
<text x="286" y="10" fill="#767676">Jan</text>
<rect x="286" y="29" width="11" height="11" rx="2" fill="#9be9a8"><title>2026-01-05: 1 submission</title></rect>
<rect x="286" y="43" width="11" height="11" rx="2" fill="#9be9a8"><title>2026-01-06: 1 submission</title></rect>
<rect x="286" y="57" width="11" height="11" rx="2" fill="#9be9a8"><title>2026-01-07: 1 submission</title></rect>
<rect x="286" y="71" width="11" height="11" rx="2" fill="#40c463"><title>2026-01-08: 2 submissions</title></rect>
<rect x="286" y="85" width="11" height="11" rx="2" fill="#9be9a8"><title>2026-01-09: 1 submission</title></rect>
<rect x="286" y="99" width="11" height="11" rx="2" fill="#9be9a8"><title>2026-01-10: 1 submission</title></rect>
<rect x="300" y="15" width="11" height="11" rx="2" fill="#9be9a8"><title>2026-01-11: 1 submission</title></rect>
<rect x="300" y="29" width="11" height="11" rx="2" fill="#ebedf0"><title>2026-01-12: 0 submissions</title></rect>
<rect x="300" y="43" width="11" height="11" rx="2" fill="#30a14e"><title>2026-01-13: 4 submissions</title></rect>
<rect x="300" y="57" width="11" height="11" rx="2" fill="#ebedf0"><title>2026-01-14: 0 submissions</title></rect>
<rect x="300" y="71" width="11" height="11" rx="2" fill="#ebedf0"><title>2026-01-15: 0 submissions</title></rect>
<rect x="300" y="85" width="11" height="11" rx="2" fill="#ebedf0"><title>2026-01-16: 0 submissions</title></rect>
<rect x="300" y="99" width="11" height="11" rx="2" fill="#216e39"><title>2026-01-17: 13 submissions</title></rect>
<rect x="314" y="15" width="11" height="11" rx="2" fill="#40c463"><title>2026-01-18: 2 submissions</title></rect>
<rect x="314" y="29" width="11" height="11" rx="2" fill="#ebedf0"><title>2026-01-19: 0 submissions</title></rect>
<rect x="314" y="43" width="11" height="11" rx="2" fill="#216e39"><title>2026-01-20: 12 submissions</title></rect>
<rect x="314" y="57" width="11" height="11" rx="2" fill="#216e39"><title>2026-01-21: 20 submissions</title></rect>
<rect x="314" y="71" width="11" height="11" rx="2" fill="#216e39"><title>2026-01-22: 15 submissions</title></rect>
<rect x="314" y="85" width="11" height="11" rx="2" fill="#ebedf0"><title>2026-01-23: 0 submissions</title></rect>
<rect x="314" y="99" width="11" height="11" rx="2" fill="#216e39"><title>2026-01-24: 16 submissions</title></rect>
<rect x="328" y="15" width="11" height="11" rx="2" fill="#ebedf0"><title>2026-01-25: 0 submissions</title></rect>
<rect x="328" y="29" width="11" height="11" rx="2" fill="#ebedf0"><title>2026-01-26: 0 submissions</title></rect>
<rect x="328" y="43" width="11" height="11" rx="2" fill="#ebedf0"><title>2026-01-27: 0 submissions</title></rect>
<rect x="328" y="57" width="11" height="11" rx="2" fill="#216e39"><title>2026-01-28: 18 submissions</title></rect>
<rect x="328" y="71" width="11" height="11" rx="2" fill="#ebedf0"><title>2026-01-29: 0 submissions</title></rect>
<rect x="328" y="85" width="11" height="11" rx="2" fill="#ebedf0"><title>2026-01-30: 0 submissions</title></rect>
<rect x="328" y="99" width="11" height="11" rx="2" fill="#ebedf0"><title>2026-01-31: 0 submissions</title></rect>
<rect x="342" y="15" width="11" height="11" rx="2" fill="#ebedf0"><title>2026-02-01: 0 submissions</title></rect>
<text x="342" y="10" fill="#767676">Feb</text>
<rect x="342" y="29" width="11" height="11" rx="2" fill="#ebedf0"><title>2026-02-02: 0 submissions</title></rect>
<rect x="342" y="43" width="11" height="11" rx="2" fill="#ebedf0"><title>2026-02-03: 0 submissions</title></rect>
<rect x="342" y="57" width="11" height="11" rx="2" fill="#ebedf0"><title>2026-02-04: 0 submissions</title></rect>
<rect x="342" y="71" width="11" height="11" rx="2" fill="#ebedf0"><title>2026-02-05: 0 submissions</title></rect>
<rect x="342" y="85" width="11" height="11" rx="2" fill="#ebedf0"><title>2026-02-06: 0 submissions</title></rect>
<rect x="342" y="99" width="11" height="11" rx="2" fill="#ebedf0"><title>2026-02-07: 0 submissions</title></rect>
<rect x="356" y="15" width="11" height="11" rx="2" fill="#ebedf0"><title>2026-02-08: 0 submissions</title></rect>
<rect x="356" y="29" width="11" height="11" rx="2" fill="#ebedf0"><title>2026-02-09: 0 submissions</title></rect>
<rect x="356" y="43" width="11" height="11" rx="2" fill="#ebedf0"><title>2026-02-10: 0 submissions</title></rect>
<rect x="356" y="57" width="11" height="11" rx="2" fill="#ebedf0"><title>2026-02-11: 0 submissions</title></rect>
<rect x="356" y="71" width="11" height="11" rx="2" fill="#ebedf0"><title>2026-02-12: 0 submissions</title></rect>
<rect x="356" y="85" width="11" height="11" rx="2" fill="#ebedf0"><title>2026-02-13: 0 submissions</title></rect>
<rect x="356" y="99" width="11" height="11" rx="2" fill="#ebedf0"><title>2026-02-14: 0 submissions</title></rect>
<rect x="370" y="15" width="11" height="11" rx="2" fill="#ebedf0"><title>2026-02-15: 0 submissions</title></rect>
<rect x="370" y="29" width="11" height="11" rx="2" fill="#ebedf0"><title>2026-02-16: 0 submissions</title></rect>
<rect x="370" y="43" width="11" height="11" rx="2" fill="#ebedf0"><title>2026-02-17: 0 submissions</title></rect>
<rect x="370" y="57" width="11" height="11" rx="2" fill="#ebedf0"><title>2026-02-18: 0 submissions</title></rect>
<rect x="370" y="71" width="11" height="11" rx="2" fill="#ebedf0"><title>2026-02-19: 0 submissions</title></rect>
<rect x="370" y="85" width="11" height="11" rx="2" fill="#ebedf0"><title>2026-02-20: 0 submissions</title></rect>
<rect x="370" y="99" width="11" height="11" rx="2" fill="#ebedf0"><title>2026-02-21: 0 submissions</title></rect>
<rect x="384" y="15" width="11" height="11" rx="2" fill="#ebedf0"><title>2026-02-22: 0 submissions</title></rect>
<rect x="384" y="29" width="11" height="11" rx="2" fill="#216e39"><title>2026-02-23: 12 submissions</title></rect>
<rect x="384" y="43" width="11" height="11" rx="2" fill="#9be9a8"><title>2026-02-24: 1 submission</title></rect>
<rect x="384" y="57" width="11" height="11" rx="2" fill="#9be9a8"><title>2026-02-25: 1 submission</title></rect>
<rect x="384" y="71" width="11" height="11" rx="2" fill="#40c463"><title>2026-02-26: 2 submissions</title></rect>
<rect x="384" y="85" width="11" height="11" rx="2" fill="#9be9a8"><title>2026-02-27: 1 submission</title></rect>
<rect x="384" y="99" width="11" height="11" rx="2" fill="#40c463"><title>2026-02-28: 2 submissions</title></rect>
<rect x="398" y="15" width="11" height="11" rx="2" fill="#ebedf0"><title>2026-03-01: 0 submissions</title></rect>
<text x="398" y="10" fill="#767676">Mar</text>
<rect x="398" y="29" width="11" height="11" rx="2" fill="#ebedf0"><title>2026-03-02: 0 submissions</title></rect>
<rect x="398" y="43" width="11" height="11" rx="2" fill="#ebedf0"><title>2026-03-03: 0 submissions</title></rect>
<rect x="398" y="57" width="11" height="11" rx="2" fill="#40c463"><title>2026-03-04: 3 submissions</title></rect>
<rect x="398" y="71" width="11" height="11" rx="2" fill="#30a14e"><title>2026-03-05: 4 submissions</title></rect>
<rect x="398" y="85" width="11" height="11" rx="2" fill="#216e39"><title>2026-03-06: 11 submissions</title></rect>
<rect x="398" y="99" width="11" height="11" rx="2" fill="#9be9a8"><title>2026-03-07: 1 submission</title></rect>
<rect x="412" y="15" width="11" height="11" rx="2" fill="#40c463"><title>2026-03-08: 2 submissions</title></rect>
<rect x="412" y="29" width="11" height="11" rx="2" fill="#40c463"><title>2026-03-09: 2 submissions</title></rect>
<rect x="412" y="43" width="11" height="11" rx="2" fill="#9be9a8"><title>2026-03-10: 1 submission</title></rect>
<rect x="412" y="57" width="11" height="11" rx="2" fill="#40c463"><title>2026-03-11: 2 submissions</title></rect>
<rect x="412" y="71" width="11" height="11" rx="2" fill="#216e39"><title>2026-03-12: 16 submissions</title></rect>
<rect x="412" y="85" width="11" height="11" rx="2" fill="#30a14e"><title>2026-03-13: 4 submissions</title></rect>
<rect x="412" y="99" width="11" height="11" rx="2" fill="#216e39"><title>2026-03-14: 12 submissions</title></rect>
<rect x="426" y="15" width="11" height="11" rx="2" fill="#216e39"><title>2026-03-15: 24 submissions</title></rect>
<rect x="426" y="29" width="11" height="11" rx="2" fill="#216e39"><title>2026-03-16: 30 submissions</title></rect>
<rect x="426" y="43" width="11" height="11" rx="2" fill="#9be9a8"><title>2026-03-17: 1 submission</title></rect>
<rect x="426" y="57" width="11" height="11" rx="2" fill="#216e39"><title>2026-03-18: 11 submissions</title></rect>
<rect x="426" y="71" width="11" height="11" rx="2" fill="#9be9a8"><title>2026-03-19: 1 submission</title></rect>
<rect x="426" y="85" width="11" height="11" rx="2" fill="#9be9a8"><title>2026-03-20: 1 submission</title></rect>
<rect x="426" y="99" width="11" height="11" rx="2" fill="#216e39"><title>2026-03-21: 19 submissions</title></rect>
<rect x="440" y="15" width="11" height="11" rx="2" fill="#40c463"><title>2026-03-22: 3 submissions</title></rect>
<rect x="440" y="29" width="11" height="11" rx="2" fill="#216e39"><title>2026-03-23: 13 submissions</title></rect>
<rect x="440" y="43" width="11" height="11" rx="2" fill="#216e39"><title>2026-03-24: 15 submissions</title></rect>
<rect x="440" y="57" width="11" height="11" rx="2" fill="#216e39"><title>2026-03-25: 9 submissions</title></rect>
<rect x="440" y="71" width="11" height="11" rx="2" fill="#216e39"><title>2026-03-26: 25 submissions</title></rect>
<rect x="440" y="85" width="11" height="11" rx="2" fill="#40c463"><title>2026-03-27: 2 submissions</title></rect>
<rect x="440" y="99" width="11" height="11" rx="2" fill="#9be9a8"><title>2026-03-28: 1 submission</title></rect>
<rect x="454" y="15" width="11" height="11" rx="2" fill="#216e39"><title>2026-03-29: 11 submissions</title></rect>
<rect x="454" y="29" width="11" height="11" rx="2" fill="#40c463"><title>2026-03-30: 3 submissions</title></rect>
<rect x="454" y="43" width="11" height="11" rx="2" fill="#9be9a8"><title>2026-03-31: 1 submission</title></rect>
<rect x="454" y="57" width="11" height="11" rx="2" fill="#40c463"><title>2026-04-01: 2 submissions</title></rect>
<rect x="454" y="71" width="11" height="11" rx="2" fill="#9be9a8"><title>2026-04-02: 1 submission</title></rect>
<rect x="454" y="85" width="11" height="11" rx="2" fill="#9be9a8"><title>2026-04-03: 1 submission</title></rect>
<rect x="454" y="99" width="11" height="11" rx="2" fill="#216e39"><title>2026-04-04: 10 submissions</title></rect>
<rect x="468" y="15" width="11" height="11" rx="2" fill="#40c463"><title>2026-04-05: 2 submissions</title></rect>
<text x="468" y="10" fill="#767676">Apr</text>
<rect x="468" y="29" width="11" height="11" rx="2" fill="#9be9a8"><title>2026-04-06: 1 submission</title></rect>
<rect x="468" y="43" width="11" height="11" rx="2" fill="#216e39"><title>2026-04-07: 6 submissions</title></rect>
<rect x="468" y="57" width="11" height="11" rx="2" fill="#9be9a8"><title>2026-04-08: 1 submission</title></rect>
<rect x="468" y="71" width="11" height="11" rx="2" fill="#40c463"><title>2026-04-09: 2 submissions</title></rect>
<rect x="468" y="85" width="11" height="11" rx="2" fill="#40c463"><title>2026-04-10: 2 submissions</title></rect>
<rect x="468" y="99" width="11" height="11" rx="2" fill="#ebedf0"><title>2026-04-11: 0 submissions</title></rect>
<rect x="482" y="15" width="11" height="11" rx="2" fill="#216e39"><title>2026-04-12: 7 submissions</title></rect>
<rect x="482" y="29" width="11" height="11" rx="2" fill="#40c463"><title>2026-04-13: 2 submissions</title></rect>
<rect x="482" y="43" width="11" height="11" rx="2" fill="#216e39"><title>2026-04-14: 7 submissions</title></rect>
<rect x="482" y="57" width="11" height="11" rx="2" fill="#9be9a8"><title>2026-04-15: 1 submission</title></rect>
<rect x="482" y="71" width="11" height="11" rx="2" fill="#40c463"><title>2026-04-16: 3 submissions</title></rect>
<rect x="482" y="85" width="11" height="11" rx="2" fill="#216e39"><title>2026-04-17: 10 submissions</title></rect>
<rect x="482" y="99" width="11" height="11" rx="2" fill="#40c463"><title>2026-04-18: 2 submissions</title></rect>
<rect x="496" y="15" width="11" height="11" rx="2" fill="#9be9a8"><title>2026-04-19: 1 submission</title></rect>
<rect x="496" y="29" width="11" height="11" rx="2" fill="#216e39"><title>2026-04-20: 7 submissions</title></rect>
<rect x="496" y="43" width="11" height="11" rx="2" fill="#40c463"><title>2026-04-21: 2 submissions</title></rect>
<rect x="496" y="57" width="11" height="11" rx="2" fill="#40c463"><title>2026-04-22: 2 submissions</title></rect>
<rect x="496" y="71" width="11" height="11" rx="2" fill="#40c463"><title>2026-04-23: 2 submissions</title></rect>
<rect x="496" y="85" width="11" height="11" rx="2" fill="#9be9a8"><title>2026-04-24: 1 submission</title></rect>
<rect x="496" y="99" width="11" height="11" rx="2" fill="#9be9a8"><title>2026-04-25: 1 submission</title></rect>
<rect x="510" y="15" width="11" height="11" rx="2" fill="#ebedf0"><title>2026-04-26: 0 submissions</title></rect>
<rect x="510" y="29" width="11" height="11" rx="2" fill="#30a14e"><title>2026-04-27: 4 submissions</title></rect>
<rect x="510" y="43" width="11" height="11" rx="2" fill="#ebedf0"><title>2026-04-28: 0 submissions</title></rect>
<rect x="510" y="57" width="11" height="11" rx="2" fill="#9be9a8"><title>2026-04-29: 1 submission</title></rect>
<rect x="510" y="71" width="11" height="11" rx="2" fill="#30a14e"><title>2026-04-30: 4 submissions</title></rect>
<rect x="510" y="85" width="11" height="11" rx="2" fill="#30a14e"><title>2026-05-01: 5 submissions</title></rect>
<rect x="510" y="99" width="11" height="11" rx="2" fill="#30a14e"><title>2026-05-02: 4 submissions</title></rect>
<rect x="524" y="15" width="11" height="11" rx="2" fill="#40c463"><title>2026-05-03: 3 submissions</title></rect>
<text x="524" y="10" fill="#767676">May</text>
<rect x="524" y="29" width="11" height="11" rx="2" fill="#40c463"><title>2026-05-04: 2 submissions</title></rect>
<rect x="524" y="43" width="11" height="11" rx="2" fill="#9be9a8"><title>2026-05-05: 1 submission</title></rect>
<rect x="524" y="57" width="11" height="11" rx="2" fill="#40c463"><title>2026-05-06: 3 submissions</title></rect>
<rect x="524" y="71" width="11" height="11" rx="2" fill="#216e39"><title>2026-05-07: 12 submissions</title></rect>
<rect x="524" y="85" width="11" height="11" rx="2" fill="#9be9a8"><title>2026-05-08: 1 submission</title></rect>
<rect x="524" y="99" width="11" height="11" rx="2" fill="#9be9a8"><title>2026-05-09: 1 submission</title></rect>
<rect x="538" y="15" width="11" height="11" rx="2" fill="#ebedf0"><title>2026-05-10: 0 submissions</title></rect>
<rect x="538" y="29" width="11" height="11" rx="2" fill="#30a14e"><title>2026-05-11: 4 submissions</title></rect>
<rect x="538" y="43" width="11" height="11" rx="2" fill="#9be9a8"><title>2026-05-12: 1 submission</title></rect>
<rect x="538" y="57" width="11" height="11" rx="2" fill="#40c463"><title>2026-05-13: 2 submissions</title></rect>
<rect x="538" y="71" width="11" height="11" rx="2" fill="#9be9a8"><title>2026-05-14: 1 submission</title></rect>
<rect x="538" y="85" width="11" height="11" rx="2" fill="#ebedf0"><title>2026-05-15: 0 submissions</title></rect>
<rect x="538" y="99" width="11" height="11" rx="2" fill="#40c463"><title>2026-05-16: 2 submissions</title></rect>
<rect x="552" y="15" width="11" height="11" rx="2" fill="#9be9a8"><title>2026-05-17: 1 submission</title></rect>
<rect x="552" y="29" width="11" height="11" rx="2" fill="#40c463"><title>2026-05-18: 2 submissions</title></rect>
<rect x="552" y="43" width="11" height="11" rx="2" fill="#9be9a8"><title>2026-05-19: 1 submission</title></rect>
<rect x="552" y="57" width="11" height="11" rx="2" fill="#9be9a8"><title>2026-05-20: 1 submission</title></rect>
<rect x="552" y="71" width="11" height="11" rx="2" fill="#40c463"><title>2026-05-21: 2 submissions</title></rect>
<rect x="552" y="85" width="11" height="11" rx="2" fill="#30a14e"><title>2026-05-22: 4 submissions</title></rect>
<rect x="552" y="99" width="11" height="11" rx="2" fill="#40c463"><title>2026-05-23: 2 submissions</title></rect>
<rect x="566" y="15" width="11" height="11" rx="2" fill="#9be9a8"><title>2026-05-24: 1 submission</title></rect>
<rect x="566" y="29" width="11" height="11" rx="2" fill="#40c463"><title>2026-05-25: 2 submissions</title></rect>
<rect x="566" y="43" width="11" height="11" rx="2" fill="#9be9a8"><title>2026-05-26: 1 submission</title></rect>
<rect x="566" y="57" width="11" height="11" rx="2" fill="#30a14e"><title>2026-05-27: 5 submissions</title></rect>
<rect x="566" y="71" width="11" height="11" rx="2" fill="#9be9a8"><title>2026-05-28: 1 submission</title></rect>
<rect x="566" y="85" width="11" height="11" rx="2" fill="#40c463"><title>2026-05-29: 2 submissions</title></rect>
<rect x="566" y="99" width="11" height="11" rx="2" fill="#ebedf0"><title>2026-05-30: 0 submissions</title></rect>
<rect x="580" y="15" width="11" height="11" rx="2" fill="#216e39"><title>2026-05-31: 7 submissions</title></rect>
<rect x="580" y="29" width="11" height="11" rx="2" fill="#216e39"><title>2026-06-01: 28 submissions</title></rect>
<rect x="580" y="43" width="11" height="11" rx="2" fill="#216e39"><title>2026-06-02: 19 submissions</title></rect>
<rect x="580" y="57" width="11" height="11" rx="2" fill="#30a14e"><title>2026-06-03: 4 submissions</title></rect>
<rect x="580" y="71" width="11" height="11" rx="2" fill="#9be9a8"><title>2026-06-04: 1 submission</title></rect>
<rect x="580" y="85" width="11" height="11" rx="2" fill="#9be9a8"><title>2026-06-05: 1 submission</title></rect>
<rect x="580" y="99" width="11" height="11" rx="2" fill="#216e39"><title>2026-06-06: 7 submissions</title></rect>
<rect x="594" y="15" width="11" height="11" rx="2" fill="#9be9a8"><title>2026-06-07: 1 submission</title></rect>
<text x="594" y="10" fill="#767676">Jun</text>
<rect x="594" y="29" width="11" height="11" rx="2" fill="#9be9a8"><title>2026-06-08: 1 submission</title></rect>
<rect x="594" y="43" width="11" height="11" rx="2" fill="#9be9a8"><title>2026-06-09: 1 submission</title></rect>
<rect x="594" y="57" width="11" height="11" rx="2" fill="#9be9a8"><title>2026-06-10: 1 submission</title></rect>
<rect x="594" y="71" width="11" height="11" rx="2" fill="#216e39"><title>2026-06-11: 11 submissions</title></rect>
<rect x="594" y="85" width="11" height="11" rx="2" fill="#9be9a8"><title>2026-06-12: 1 submission</title></rect>
<rect x="594" y="99" width="11" height="11" rx="2" fill="#40c463"><title>2026-06-13: 2 submissions</title></rect>
<rect x="608" y="15" width="11" height="11" rx="2" fill="#9be9a8"><title>2026-06-14: 1 submission</title></rect>
<rect x="608" y="29" width="11" height="11" rx="2" fill="#30a14e"><title>2026-06-15: 4 submissions</title></rect>
<rect x="608" y="43" width="11" height="11" rx="2" fill="#40c463"><title>2026-06-16: 3 submissions</title></rect>
<rect x="608" y="57" width="11" height="11" rx="2" fill="#30a14e"><title>2026-06-17: 4 submissions</title></rect>
<rect x="608" y="71" width="11" height="11" rx="2" fill="#ebedf0"><title>2026-06-18: 0 submissions</title></rect>
<rect x="608" y="85" width="11" height="11" rx="2" fill="#40c463"><title>2026-06-19: 3 submissions</title></rect>
<rect x="608" y="99" width="11" height="11" rx="2" fill="#9be9a8"><title>2026-06-20: 1 submission</title></rect>
<rect x="622" y="15" width="11" height="11" rx="2" fill="#40c463"><title>2026-06-21: 2 submissions</title></rect>
<rect x="622" y="29" width="11" height="11" rx="2" fill="#30a14e"><title>2026-06-22: 4 submissions</title></rect>
<rect x="622" y="43" width="11" height="11" rx="2" fill="#ebedf0"><title>2026-06-23: 0 submissions</title></rect>
<rect x="622" y="57" width="11" height="11" rx="2" fill="#ebedf0"><title>2026-06-24: 0 submissions</title></rect>
<rect x="622" y="71" width="11" height="11" rx="2" fill="#ebedf0"><title>2026-06-25: 0 submissions</title></rect>
<rect x="622" y="85" width="11" height="11" rx="2" fill="#ebedf0"><title>2026-06-26: 0 submissions</title></rect>
<rect x="622" y="99" width="11" height="11" rx="2" fill="#ebedf0"><title>2026-06-27: 0 submissions</title></rect>
<rect x="636" y="15" width="11" height="11" rx="2" fill="#ebedf0"><title>2026-06-28: 0 submissions</title></rect>
<rect x="636" y="29" width="11" height="11" rx="2" fill="#ebedf0"><title>2026-06-29: 0 submissions</title></rect>
<rect x="636" y="43" width="11" height="11" rx="2" fill="#ebedf0"><title>2026-06-30: 0 submissions</title></rect>
<rect x="636" y="57" width="11" height="11" rx="2" fill="#ebedf0"><title>2026-07-01: 0 submissions</title></rect>
<rect x="636" y="71" width="11" height="11" rx="2" fill="#ebedf0"><title>2026-07-02: 0 submissions</title></rect>
<rect x="636" y="85" width="11" height="11" rx="2" fill="#ebedf0"><title>2026-07-03: 0 submissions</title></rect>
<rect x="636" y="99" width="11" height="11" rx="2" fill="#ebedf0"><title>2026-07-04: 0 submissions</title></rect>
<rect x="650" y="15" width="11" height="11" rx="2" fill="#ebedf0"><title>2026-07-05: 0 submissions</title></rect>
<text x="650" y="10" fill="#767676">Jul</text>
<rect x="650" y="29" width="11" height="11" rx="2" fill="#ebedf0"><title>2026-07-06: 0 submissions</title></rect>
<rect x="650" y="43" width="11" height="11" rx="2" fill="#ebedf0"><title>2026-07-07: 0 submissions</title></rect>
<rect x="650" y="57" width="11" height="11" rx="2" fill="#ebedf0"><title>2026-07-08: 0 submissions</title></rect>
<rect x="650" y="71" width="11" height="11" rx="2" fill="#ebedf0"><title>2026-07-09: 0 submissions</title></rect>
<rect x="650" y="85" width="11" height="11" rx="2" fill="#ebedf0"><title>2026-07-10: 0 submissions</title></rect>
<rect x="650" y="99" width="11" height="11" rx="2" fill="#ebedf0"><title>2026-07-11: 0 submissions</title></rect>
<rect x="664" y="15" width="11" height="11" rx="2" fill="#ebedf0"><title>2026-07-12: 0 submissions</title></rect>
<rect x="664" y="29" width="11" height="11" rx="2" fill="#ebedf0"><title>2026-07-13: 0 submissions</title></rect>
<rect x="664" y="43" width="11" height="11" rx="2" fill="#9be9a8"><title>2026-07-14: 1 submission</title></rect>
<rect x="664" y="57" width="11" height="11" rx="2" fill="#ebedf0"><title>2026-07-15: 0 submissions</title></rect>
<rect x="664" y="71" width="11" height="11" rx="2" fill="#ebedf0"><title>2026-07-16: 0 submissions</title></rect>
<rect x="664" y="85" width="11" height="11" rx="2" fill="#ebedf0"><title>2026-07-17: 0 submissions</title></rect>
<rect x="664" y="99" width="11" height="11" rx="2" fill="#ebedf0"><title>2026-07-18: 0 submissions</title></rect>
<rect x="678" y="15" width="11" height="11" rx="2" fill="#ebedf0"><title>2026-07-19: 0 submissions</title></rect>
<rect x="678" y="29" width="11" height="11" rx="2" fill="#ebedf0"><title>2026-07-20: 0 submissions</title></rect>
<rect x="678" y="43" width="11" height="11" rx="2" fill="#ebedf0"><title>2026-07-21: 0 submissions</title></rect>
<rect x="678" y="57" width="11" height="11" rx="2" fill="#ebedf0"><title>2026-07-22: 0 submissions</title></rect>
<rect x="678" y="71" width="11" height="11" rx="2" fill="#ebedf0"><title>2026-07-23: 0 submissions</title></rect>
<rect x="678" y="85" width="11" height="11" rx="2" fill="#ebedf0"><title>2026-07-24: 0 submissions</title></rect>
<rect x="678" y="99" width="11" height="11" rx="2" fill="#ebedf0"><title>2026-07-25: 0 submissions</title></rect>
<rect x="692" y="15" width="11" height="11" rx="2" fill="#ebedf0"><title>2026-07-26: 0 submissions</title></rect>
<rect x="692" y="29" width="11" height="11" rx="2" fill="#ebedf0"><title>2026-07-27: 0 submissions</title></rect>
<rect x="692" y="43" width="11" height="11" rx="2" fill="#ebedf0"><title>2026-07-28: 0 submissions</title></rect>
<rect x="692" y="57" width="11" height="11" rx="2" fill="#40c463"><title>2026-07-29: 3 submissions</title></rect>
<rect x="692" y="71" width="11" height="11" rx="2" fill="#216e39"><title>2026-07-30: 12 submissions</title></rect>
<rect x="692" y="85" width="11" height="11" rx="2" fill="#40c463"><title>2026-07-31: 2 submissions</title></rect>
<rect x="692" y="99" width="11" height="11" rx="2" fill="#30a14e"><title>2026-08-01: 4 submissions</title></rect>
<rect x="706" y="15" width="11" height="11" rx="2" fill="#40c463"><title>2026-08-02: 3 submissions</title></rect>
<text x="706" y="10" fill="#767676">Aug</text>
<rect x="706" y="29" width="11" height="11" rx="2" fill="#9be9a8"><title>2026-08-03: 1 submission</title></rect>
<rect x="706" y="43" width="11" height="11" rx="2" fill="#216e39"><title>2026-08-04: 6 submissions</title></rect>
<rect x="706" y="57" width="11" height="11" rx="2" fill="#9be9a8"><title>2026-08-05: 1 submission</title></rect>
<rect x="706" y="71" width="11" height="11" rx="2" fill="#30a14e"><title>2026-08-06: 4 submissions</title></rect>
<rect x="706" y="85" width="11" height="11" rx="2" fill="#9be9a8"><title>2026-08-07: 1 submission</title></rect>
<rect x="706" y="99" width="11" height="11" rx="2" fill="#216e39"><title>2026-08-08: 8 submissions</title></rect>
<rect x="720" y="15" width="11" height="11" rx="2" fill="#9be9a8"><title>2026-08-09: 1 submission</title></rect>
<rect x="720" y="29" width="11" height="11" rx="2" fill="#40c463"><title>2026-08-10: 3 submissions</title></rect>
<rect x="720" y="43" width="11" height="11" rx="2" fill="#30a14e"><title>2026-08-11: 4 submissions</title></rect>
<rect x="720" y="57" width="11" height="11" rx="2" fill="#30a14e"><title>2026-08-12: 5 submissions</title></rect>
<rect x="720" y="71" width="11" height="11" rx="2" fill="#40c463"><title>2026-08-13: 2 submissions</title></rect>
<rect x="720" y="85" width="11" height="11" rx="2" fill="#40c463"><title>2026-08-14: 2 submissions</title></rect>
<rect x="720" y="99" width="11" height="11" rx="2" fill="#9be9a8"><title>2026-08-15: 1 submission</title></rect>
<rect x="734" y="15" width="11" height="11" rx="2" fill="#40c463"><title>2026-08-16: 3 submissions</title></rect>
<rect x="734" y="29" width="11" height="11" rx="2" fill="#9be9a8"><title>2026-08-17: 1 submission</title></rect>
<rect x="734" y="43" width="11" height="11" rx="2" fill="#9be9a8"><title>2026-08-18: 1 submission</title></rect>
<rect x="734" y="57" width="11" height="11" rx="2" fill="#9be9a8"><title>2026-08-19: 1 submission</title></rect>
<rect x="734" y="71" width="11" height="11" rx="2" fill="#ebedf0"><title>2026-08-20: 0 submissions</title></rect>
<rect x="734" y="85" width="11" height="11" rx="2" fill="#40c463"><title>2026-08-21: 2 submissions</title></rect>
<rect x="734" y="99" width="11" height="11" rx="2" fill="#9be9a8"><title>2026-08-22: 1 submission</title></rect>
<rect x="748" y="15" width="11" height="11" rx="2" fill="#30a14e"><title>2026-08-23: 5 submissions</title></rect>
<rect x="748" y="29" width="11" height="11" rx="2" fill="#9be9a8"><title>2026-08-24: 1 submission</title></rect>
<rect x="748" y="43" width="11" height="11" rx="2" fill="#9be9a8"><title>2026-08-25: 1 submission</title></rect>
<rect x="748" y="57" width="11" height="11" rx="2" fill="#30a14e"><title>2026-08-26: 5 submissions</title></rect>
<rect x="748" y="71" width="11" height="11" rx="2" fill="#40c463"><title>2026-08-27: 2 submissions</title></rect>
<rect x="748" y="85" width="11" height="11" rx="2" fill="#9be9a8"><title>2026-08-28: 1 submission</title></rect>
<rect x="748" y="99" width="11" height="11" rx="2" fill="#30a14e"><title>2026-08-29: 5 submissions</title></rect>
<rect x="762" y="15" width="11" height="11" rx="2" fill="#ebedf0"><title>2026-08-30: 0 submissions</title></rect>
</svg>